<svg width="190" height="80" viewBox="0 0 190 80" fill="none" xmlns="http://www.w3.org/2000/svg">
<path d="M0.75 40C0.75 18.3228 18.3228 0.75 40 0.75H150C171.677 0.75 189.25 18.3228 189.25 40C189.25 61.6772 171.677 79.25 150 79.25H40C18.3228 79.25 0.75 61.6772 0.75 40Z" fill="white" stroke="black" stroke-width="1.5"/>
<rect x="12.21" y="11.75" width="165.5" height="56.5" rx="28.25" fill="#FCEBA5"/>
<rect x="12.21" y="11.75" width="165.5" height="56.5" rx="28.25" stroke="black" stroke-width="1.5"/>
<path d="M58.3 29.632V45.4H56.044V37.768H53.644V44.896H51.412V30.016H53.644V35.848H56.044V29.632H58.3ZM41.212 31.432H49.228V37.696H43.516V40.456C44.924 40.44 46.132 40.4 47.14 40.336C48.164 40.256 49.212 40.112 50.284 39.904L50.5 41.776C49.284 42.016 48.092 42.176 46.924 42.256C45.756 42.336 44.332 42.376 42.652 42.376H41.26V35.944H46.948V33.304H41.212V31.432ZM44.284 43.984H46.636V48.52H58.9V50.44H44.284V43.984ZM72.0765 30.928V32.8H64.7565V39.112C66.7405 39.096 68.3405 39.048 69.5565 38.968C70.7725 38.888 71.9725 38.72 73.1565 38.464L73.3725 40.336C72.0925 40.608 70.7805 40.792 69.4365 40.888C68.1085 40.968 66.3165 41.008 64.0605 41.008H62.4285V30.928H72.0765ZM64.9485 42.904H78.8685V50.584H64.9485V42.904ZM76.5645 48.712V44.776H67.2765V48.712H76.5645ZM70.9245 34.696H76.5165V29.632H78.8685V41.92H76.5165V36.616H70.9245V34.696ZM104.512 30.424V32.32H92.6563V35.008H104.752V36.88H98.5843V38.632H106.984V40.504H87.8083V38.632H96.2323V36.88H90.3043V30.424H104.512ZM90.0643 42.04H104.584V47.08H92.4403V48.856H105.184V50.68H90.1363V45.4H102.256V43.816H90.0643V42.04ZM126.281 29.608V50.896H123.929V29.608H126.281ZM109.937 31.552H119.825V39.376H112.361V43.888C114.265 43.872 115.969 43.816 117.473 43.72C118.977 43.624 120.529 43.44 122.129 43.168L122.369 45.064C120.641 45.368 118.961 45.576 117.329 45.688C115.713 45.784 113.865 45.832 111.785 45.832H109.985V37.456H117.449V33.448H109.937V31.552ZM147.257 29.632V50.872H144.905V29.632H147.257ZM129.929 45.184C132.681 43.856 134.753 42.256 136.145 40.384C137.537 38.496 138.345 36.296 138.569 33.784H130.937V31.864H140.993C140.993 35.192 140.225 38.136 138.689 40.696C137.153 43.24 134.641 45.36 131.153 47.056L129.929 45.184Z" fill="black"/>
</svg>
