<svg width="641" height="348" viewBox="0 0 641 348" fill="none" xmlns="http://www.w3.org/2000/svg">
<path d="M288.078 78H286.494L283.95 69.984L281.478 78H279.894L276.534 66.936H278.334L280.686 74.928L283.062 66.936H284.814L287.286 74.952L289.566 66.936H291.366L288.078 78ZM301.406 71.808C301.406 70.832 301.158 70.04 300.662 69.432C300.182 68.808 299.55 68.496 298.766 68.496C298.222 68.496 297.71 68.672 297.23 69.024C296.75 69.36 296.366 69.816 296.078 70.392C295.79 70.968 295.646 71.584 295.646 72.24V78H293.918V61.152H295.646V68.712C295.966 68.184 296.398 67.76 296.942 67.44C297.502 67.104 298.11 66.936 298.766 66.936C299.598 66.936 300.342 67.144 300.998 67.56C301.67 67.96 302.19 68.528 302.558 69.264C302.942 69.984 303.134 70.8 303.134 71.712V78H301.406V71.808ZM311.535 78.168C310.527 78.168 309.623 77.928 308.823 77.448C308.023 76.968 307.399 76.304 306.951 75.456C306.503 74.608 306.279 73.648 306.279 72.576C306.279 71.504 306.503 70.544 306.951 69.696C307.399 68.832 308.023 68.16 308.823 67.68C309.623 67.2 310.527 66.96 311.535 66.96C312.175 66.96 312.807 67.136 313.431 67.488C314.071 67.84 314.631 68.352 315.111 69.024V66.936H316.839V78H315.111V76.08C314.631 76.8 314.079 77.328 313.455 77.664C312.847 78 312.207 78.168 311.535 78.168ZM308.007 72.576C308.007 73.76 308.335 74.728 308.991 75.48C309.663 76.232 310.519 76.608 311.559 76.608C312.183 76.608 312.767 76.44 313.311 76.104C313.855 75.752 314.295 75.272 314.631 74.664C314.967 74.04 315.135 73.344 315.135 72.576C315.135 71.824 314.967 71.136 314.631 70.512C314.295 69.888 313.855 69.4 313.311 69.048C312.767 68.696 312.183 68.52 311.559 68.52C310.519 68.52 309.663 68.904 308.991 69.672C308.335 70.424 308.007 71.392 308.007 72.576ZM321.133 68.472H319.141V66.936H321.133V63.12H322.861V66.936H325.477V68.472H322.861V78H321.133V68.472ZM335.957 66.936V78H334.229V66.936H335.957ZM333.989 62.544C333.989 62.224 334.093 61.968 334.301 61.776C334.509 61.568 334.773 61.464 335.093 61.464C335.413 61.464 335.669 61.568 335.861 61.776C336.069 61.968 336.173 62.224 336.173 62.544C336.173 62.864 336.069 63.128 335.861 63.336C335.669 63.544 335.413 63.648 335.093 63.648C334.773 63.648 334.509 63.544 334.301 63.336C334.093 63.128 333.989 62.864 333.989 62.544ZM340.507 74.592C340.811 75.232 341.243 75.72 341.803 76.056C342.379 76.392 342.915 76.56 343.411 76.56C344.131 76.56 344.723 76.416 345.187 76.128C345.651 75.824 345.883 75.416 345.883 74.904C345.883 74.584 345.763 74.32 345.523 74.112C345.283 73.888 345.003 73.712 344.683 73.584C344.363 73.456 343.883 73.288 343.243 73.08C342.443 72.808 341.819 72.568 341.371 72.36C340.923 72.152 340.515 71.84 340.147 71.424C339.779 70.992 339.595 70.456 339.595 69.816C339.595 68.92 339.963 68.2 340.699 67.656C341.435 67.112 342.355 66.84 343.459 66.84C343.939 66.84 344.451 66.936 344.995 67.128C345.539 67.304 346.027 67.6 346.459 68.016C346.907 68.416 347.211 68.92 347.371 69.528L345.787 70.032C345.643 69.44 345.339 69.024 344.875 68.784C344.411 68.528 343.939 68.4 343.459 68.4C342.835 68.4 342.323 68.528 341.923 68.784C341.523 69.04 341.323 69.384 341.323 69.816C341.323 70.136 341.435 70.4 341.659 70.608C341.883 70.816 342.147 70.984 342.451 71.112C342.771 71.224 343.267 71.392 343.939 71.616C344.739 71.888 345.371 72.136 345.835 72.36C346.299 72.568 346.707 72.88 347.059 73.296C347.427 73.712 347.611 74.248 347.611 74.904C347.611 75.864 347.211 76.64 346.411 77.232C345.611 77.824 344.611 78.12 343.411 78.12C342.547 78.12 341.723 77.888 340.939 77.424C340.155 76.96 339.539 76.304 339.091 75.456L340.507 74.592ZM358.199 66.936V78H356.471V66.936H358.199ZM356.231 62.544C356.231 62.224 356.335 61.968 356.543 61.776C356.751 61.568 357.015 61.464 357.335 61.464C357.655 61.464 357.911 61.568 358.103 61.776C358.311 61.968 358.415 62.224 358.415 62.544C358.415 62.864 358.311 63.128 358.103 63.336C357.911 63.544 357.655 63.648 357.335 63.648C357.015 63.648 356.751 63.544 356.543 63.336C356.335 63.128 356.231 62.864 356.231 62.544ZM363.109 68.472H361.117V66.936H363.109V63.12H364.837V66.936H367.453V68.472H364.837V78H363.109V68.472ZM374.802 78.312C374.45 78.312 374.154 78.2 373.914 77.976C373.69 77.736 373.578 77.44 373.578 77.088C373.578 76.736 373.69 76.456 373.914 76.248C374.138 76.024 374.434 75.912 374.802 75.912C375.154 75.912 375.434 76.024 375.642 76.248C375.866 76.456 375.978 76.736 375.978 77.088C375.978 77.456 375.866 77.752 375.642 77.976C375.434 78.2 375.154 78.312 374.802 78.312ZM369.954 64.224C370.37 63.104 371.066 62.192 372.042 61.488C373.034 60.784 374.09 60.432 375.21 60.432C376.234 60.432 377.138 60.64 377.922 61.056C378.706 61.456 379.314 62.024 379.746 62.76C380.178 63.496 380.394 64.336 380.394 65.28C380.394 66.16 380.154 67.016 379.674 67.848C379.21 68.664 378.418 69.488 377.298 70.32C376.658 70.8 376.226 71.28 376.002 71.76C375.778 72.224 375.674 72.92 375.69 73.848H373.914C373.898 72.68 374.066 71.72 374.418 70.968C374.786 70.2 375.394 69.504 376.242 68.88C377.154 68.192 377.778 67.584 378.114 67.056C378.45 66.512 378.618 65.92 378.618 65.28C378.618 64.368 378.298 63.632 377.658 63.072C377.034 62.496 376.218 62.208 375.21 62.208C374.458 62.208 373.746 62.456 373.074 62.952C372.418 63.432 371.938 64.064 371.634 64.848L369.954 64.224Z" fill="black"/>
<path d="M275.262 81H381.738V82.2H275.262V81Z" fill="black"/>
<path d="M204.532 151.569V147.493H206.539V160.969H204.532V153.228H200.825V151.569H204.532ZM191.506 156.934C192.872 156.443 193.95 155.624 194.742 154.477C195.534 153.33 195.93 152.074 195.93 150.708V148.558H197.937V150.729C197.937 151.999 198.312 153.166 199.063 154.231C199.828 155.296 200.872 156.067 202.197 156.545L201.132 158.081C200.163 157.713 199.323 157.18 198.613 156.484C197.903 155.774 197.357 154.948 196.974 154.006C196.579 155.057 196.005 155.972 195.254 156.75C194.503 157.528 193.602 158.122 192.551 158.532L191.506 156.934ZM194.742 159.515H196.77V163.59H206.948V165.229H194.742V159.515ZM217.189 148.742V150.381H212.089V152.347H217.004V153.883H212.089V155.992C213.332 155.979 214.376 155.945 215.223 155.89C216.069 155.822 216.929 155.712 217.803 155.562L217.987 157.18C217.018 157.358 216.049 157.481 215.079 157.549C214.124 157.603 212.881 157.631 211.352 157.631H210.164V148.742H217.189ZM212.499 159.372H224.766V165.597H222.78V161.01H212.499V159.372ZM218.909 147.821H220.793V152.101H222.862V147.473H224.766V158.491H222.862V153.74H220.793V158.388H218.909V147.821ZM242.789 147.473V165.597H240.885V147.473H242.789ZM227.532 155.296C227.532 153.985 227.689 152.852 228.003 151.896C228.317 150.927 228.767 150.183 229.354 149.664C229.941 149.145 230.624 148.886 231.402 148.886C232.495 148.886 233.389 149.377 234.085 150.36C234.782 151.33 235.184 152.668 235.294 154.374H237.239V147.841H239.123V164.717H237.239V156.013H235.294C235.212 157.788 234.822 159.187 234.126 160.211C233.43 161.222 232.522 161.727 231.402 161.727C230.624 161.727 229.941 161.467 229.354 160.948C228.767 160.43 228.317 159.686 228.003 158.716C227.689 157.747 227.532 156.607 227.532 155.296ZM229.375 155.296C229.375 156.73 229.552 157.849 229.907 158.655C230.262 159.447 230.761 159.843 231.402 159.843C232.044 159.843 232.549 159.447 232.918 158.655C233.286 157.849 233.471 156.73 233.471 155.296C233.471 153.876 233.286 152.77 232.918 151.978C232.549 151.186 232.044 150.79 231.402 150.79C230.761 150.79 230.262 151.186 229.907 151.978C229.552 152.756 229.375 153.862 229.375 155.296ZM254.821 148.804C255.64 148.804 256.371 149.029 257.012 149.48C257.668 149.917 258.2 150.545 258.61 151.364C259.019 152.169 259.272 153.125 259.368 154.231H262.972V147.452H264.979V165.618H262.972V155.849H259.388C259.32 157.009 259.081 158.027 258.671 158.9C258.275 159.761 257.743 160.423 257.074 160.887C256.405 161.351 255.654 161.583 254.821 161.583C253.947 161.583 253.162 161.324 252.466 160.805C251.77 160.273 251.223 159.522 250.827 158.552C250.445 157.583 250.254 156.457 250.254 155.173C250.254 153.903 250.445 152.791 250.827 151.835C251.223 150.865 251.77 150.121 252.466 149.603C253.162 149.07 253.947 148.804 254.821 148.804ZM252.159 155.173C252.159 156.102 252.268 156.914 252.486 157.61C252.718 158.307 253.032 158.839 253.428 159.208C253.838 159.576 254.302 159.761 254.821 159.761C255.64 159.761 256.289 159.351 256.767 158.532C257.258 157.713 257.504 156.593 257.504 155.173C257.504 153.767 257.258 152.661 256.767 151.855C256.289 151.036 255.64 150.627 254.821 150.627C254.029 150.627 253.387 151.036 252.896 151.855C252.404 152.675 252.159 153.78 252.159 155.173ZM282.859 147.452V165.618H280.852V158.081H277.411V156.463H280.852V153.125H277.493V151.487H280.852V147.452H282.859ZM268.461 149.07H276.448V155.747H270.489V159.802C271.881 159.788 273.124 159.747 274.216 159.679C275.322 159.61 276.462 159.488 277.636 159.31L277.8 160.969C276.503 161.174 275.254 161.31 274.052 161.379C272.851 161.447 271.465 161.481 269.895 161.481H268.502V154.129H274.462V150.688H268.461V149.07ZM293.959 147.78C295.939 147.78 297.509 148.087 298.67 148.701C299.83 149.316 300.41 150.156 300.41 151.22C300.41 152.285 299.83 153.125 298.67 153.74C297.523 154.34 295.953 154.641 293.959 154.641C291.966 154.641 290.389 154.34 289.228 153.74C288.082 153.125 287.508 152.285 287.508 151.22C287.508 150.156 288.088 149.316 289.249 148.701C290.409 148.087 291.98 147.78 293.959 147.78ZM285.767 155.849H302.131V157.487H294.942V159.331H300.144V165.372H287.733V159.331H292.956V157.487H285.767V155.849ZM289.577 151.22C289.577 151.821 289.959 152.285 290.723 152.613C291.502 152.927 292.58 153.084 293.959 153.084C295.338 153.084 296.41 152.927 297.175 152.613C297.939 152.285 298.322 151.821 298.322 151.22C298.322 150.62 297.932 150.156 297.154 149.828C296.39 149.5 295.325 149.336 293.959 149.336C292.58 149.336 291.502 149.5 290.723 149.828C289.959 150.156 289.577 150.62 289.577 151.22ZM298.178 163.775V160.928H289.699V163.775H298.178ZM311.859 147.78C313.894 147.78 315.477 148.046 316.611 148.579C317.744 149.111 318.31 149.882 318.31 150.893C318.31 151.889 317.744 152.661 316.611 153.207C315.477 153.74 313.894 154.006 311.859 154.006C309.825 154.006 308.241 153.74 307.108 153.207C305.975 152.661 305.408 151.889 305.408 150.893C305.408 149.882 305.968 149.111 307.087 148.579C308.221 148.046 309.811 147.78 311.859 147.78ZM303.667 155.091H320.031V156.709H303.667V155.091ZM305.592 158.04H317.983V162.341H307.62V163.898H318.495V165.434H305.654V160.908H315.996V159.556H305.592V158.04ZM307.477 150.893C307.477 151.425 307.852 151.828 308.603 152.101C309.354 152.374 310.439 152.511 311.859 152.511C313.266 152.511 314.344 152.374 315.095 152.101C315.846 151.828 316.222 151.425 316.222 150.893C316.222 150.36 315.846 149.958 315.095 149.684C314.344 149.398 313.266 149.254 311.859 149.254C310.439 149.254 309.354 149.398 308.603 149.684C307.852 149.958 307.477 150.36 307.477 150.893ZM335.77 148.599C335.77 149.227 335.708 149.841 335.585 150.442H339.272V147.473H341.279V157.917H339.272V155.931H334.807V154.292H339.272V152.06H335.094C334.507 153.466 333.551 154.675 332.226 155.685C330.902 156.682 329.271 157.44 327.332 157.958L326.513 156.381C328.615 155.822 330.281 155.002 331.51 153.924C332.738 152.845 333.442 151.603 333.619 150.196H327.475V148.599H335.77ZM328.581 158.757H334.582V165.597H332.554V160.375H328.581V158.757ZM335.401 158.757H341.279V165.597H339.272V160.375H335.401V158.757ZM348.324 148.128V152.716H358.728V154.333H346.338V148.128H348.324ZM344.187 156.545H360.612V158.184H344.187V156.545ZM346.194 159.843H348.201V163.549H358.83V165.188H346.194V159.843ZM381 147.473V152.019H383.519V153.699H381V158.122H378.952V147.473H381ZM367.565 148.783H375.614V150.422H369.572V155.255C371.415 155.241 372.883 155.2 373.975 155.132C375.081 155.05 376.167 154.893 377.232 154.661L377.457 156.279C376.31 156.511 375.129 156.668 373.914 156.75C372.699 156.832 371.067 156.873 369.019 156.873H367.565V148.783ZM369.101 162.034C369.101 160.928 369.64 160.061 370.719 159.433C371.798 158.805 373.265 158.491 375.122 158.491C376.993 158.491 378.467 158.805 379.546 159.433C380.624 160.061 381.164 160.928 381.164 162.034C381.164 163.14 380.624 164.007 379.546 164.635C378.467 165.263 376.993 165.577 375.122 165.577C373.265 165.577 371.798 165.263 370.719 164.635C369.64 164.007 369.101 163.14 369.101 162.034ZM371.067 162.034C371.067 162.648 371.422 163.126 372.132 163.468C372.856 163.795 373.852 163.959 375.122 163.959C376.392 163.959 377.382 163.795 378.092 163.468C378.815 163.126 379.177 162.648 379.177 162.034C379.177 161.42 378.822 160.948 378.112 160.621C377.402 160.279 376.406 160.109 375.122 160.109C373.839 160.109 372.842 160.279 372.132 160.621C371.422 160.948 371.067 161.42 371.067 162.034ZM399.617 147.493V160.723H397.589V147.493H399.617ZM384.789 156.586C385.718 156.245 386.516 155.753 387.185 155.112C387.854 154.456 388.36 153.712 388.701 152.879C389.056 152.047 389.233 151.186 389.233 150.299V148.456H391.261V150.299C391.261 151.61 391.65 152.818 392.428 153.924C393.22 155.016 394.306 155.794 395.685 156.259L394.62 157.876C393.609 157.508 392.735 156.962 391.998 156.238C391.261 155.501 390.687 154.641 390.278 153.658C389.882 154.709 389.302 155.631 388.537 156.422C387.786 157.201 386.885 157.788 385.834 158.184L384.789 156.586ZM387.82 159.494H389.827V163.59H400.149V165.229H387.82V159.494ZM410.799 147.78C412.834 147.78 414.417 148.046 415.551 148.579C416.684 149.111 417.25 149.882 417.25 150.893C417.25 151.889 416.684 152.661 415.551 153.207C414.417 153.74 412.834 154.006 410.799 154.006C408.765 154.006 407.181 153.74 406.048 153.207C404.915 152.661 404.348 151.889 404.348 150.893C404.348 149.882 404.908 149.111 406.027 148.579C407.161 148.046 408.751 147.78 410.799 147.78ZM402.607 155.091H418.971V156.709H402.607V155.091ZM404.532 158.04H416.923V162.341H406.56V163.898H417.435V165.434H404.594V160.908H414.936V159.556H404.532V158.04ZM406.417 150.893C406.417 151.425 406.792 151.828 407.543 152.101C408.294 152.374 409.379 152.511 410.799 152.511C412.206 152.511 413.284 152.374 414.035 152.101C414.786 151.828 415.162 151.425 415.162 150.893C415.162 150.36 414.786 149.958 414.035 149.684C413.284 149.398 412.206 149.254 410.799 149.254C409.379 149.254 408.294 149.398 407.543 149.684C406.792 149.958 406.417 150.36 406.417 150.893ZM431.105 148.271C432.006 148.271 432.812 148.435 433.522 148.763C434.232 149.077 434.785 149.521 435.181 150.094C435.577 150.668 435.774 151.323 435.774 152.06C435.774 152.784 435.577 153.432 435.181 154.006C434.785 154.579 434.232 155.03 433.522 155.357C432.812 155.671 432.006 155.828 431.105 155.828C430.218 155.828 429.419 155.671 428.709 155.357C427.999 155.03 427.439 154.579 427.03 154.006C426.634 153.432 426.436 152.784 426.436 152.06C426.436 151.323 426.634 150.668 427.03 150.094C427.439 149.521 427.999 149.077 428.709 148.763C429.419 148.435 430.218 148.271 431.105 148.271ZM425.207 157.18C427.528 157.18 429.637 157.146 431.535 157.078C433.433 156.996 435.249 156.818 436.983 156.545L437.106 158.04C435.686 158.313 434.047 158.518 432.19 158.655V165.044H430.183V158.757C428.763 158.825 427.187 158.86 425.453 158.86L425.207 157.18ZM428.381 152.06C428.381 152.702 428.634 153.214 429.139 153.596C429.644 153.978 430.299 154.17 431.105 154.17C431.911 154.17 432.566 153.978 433.071 153.596C433.59 153.214 433.849 152.702 433.849 152.06C433.849 151.418 433.59 150.906 433.071 150.524C432.566 150.128 431.911 149.93 431.105 149.93C430.299 149.93 429.644 150.128 429.139 150.524C428.634 150.906 428.381 151.418 428.381 152.06ZM438.171 147.473H440.178V165.618H438.171V147.473ZM446.547 150.442V147.964H448.534V150.442H451.954V152.04H443.086V150.442H446.547ZM443.619 157.303C443.619 156.497 443.783 155.781 444.11 155.153C444.452 154.511 444.916 154.013 445.503 153.658C446.104 153.303 446.78 153.125 447.53 153.125C448.281 153.125 448.957 153.303 449.558 153.658C450.159 154.013 450.623 154.511 450.951 155.153C451.292 155.781 451.463 156.497 451.463 157.303C451.463 158.122 451.292 158.853 450.951 159.494C450.623 160.136 450.159 160.634 449.558 160.989C448.957 161.344 448.281 161.522 447.53 161.522C446.78 161.522 446.104 161.344 445.503 160.989C444.916 160.634 444.452 160.136 444.11 159.494C443.783 158.853 443.619 158.122 443.619 157.303ZM445.401 157.303C445.401 158.068 445.599 158.682 445.994 159.146C446.39 159.597 446.902 159.822 447.53 159.822C448.159 159.822 448.671 159.597 449.066 159.146C449.476 158.682 449.681 158.068 449.681 157.303C449.681 156.566 449.476 155.965 449.066 155.501C448.671 155.023 448.159 154.784 447.53 154.784C446.916 154.784 446.404 155.023 445.994 155.501C445.599 155.965 445.401 156.566 445.401 157.303ZM452.753 147.862H454.658V155.009H456.624V147.473H458.528V165.597H456.624V156.648H454.658V164.737H452.753V147.862ZM462.502 166.621H461.068L461.785 162.218H463.813L462.502 166.621ZM213.098 191.275V192.954H209.023V194.777C209.023 195.774 209.221 196.764 209.617 197.747C210.013 198.716 210.566 199.59 211.276 200.368C211.999 201.133 212.818 201.713 213.733 202.109L212.607 203.706C211.569 203.228 210.654 202.525 209.862 201.597C209.071 200.668 208.463 199.603 208.04 198.402C207.616 199.699 207.002 200.86 206.197 201.884C205.405 202.894 204.49 203.645 203.452 204.136L202.305 202.559C203.206 202.136 204.012 201.508 204.722 200.675C205.446 199.842 206.005 198.907 206.401 197.869C206.797 196.832 206.995 195.801 206.995 194.777V192.954H202.94V191.275H213.098ZM215.249 189.473H217.256V207.597H215.249V189.473ZM235.279 201.105V207.597H233.272V202.703H223.073V201.105H235.279ZM220.533 194.859C220.533 194.012 220.738 193.261 221.147 192.606C221.557 191.937 222.117 191.418 222.827 191.05C223.55 190.667 224.356 190.476 225.243 190.476C225.994 190.476 226.684 190.62 227.312 190.906C227.954 191.179 228.493 191.562 228.93 192.053H233.272V189.473H235.279V200.163H233.272V197.706H228.909C228.472 198.197 227.94 198.579 227.312 198.852C226.684 199.126 225.994 199.262 225.243 199.262C224.356 199.262 223.55 199.078 222.827 198.709C222.117 198.327 221.557 197.801 221.147 197.132C220.738 196.463 220.533 195.705 220.533 194.859ZM222.438 194.859C222.438 195.664 222.697 196.32 223.216 196.825C223.748 197.316 224.424 197.562 225.243 197.562C226.049 197.562 226.711 197.316 227.23 196.825C227.749 196.32 228.008 195.664 228.008 194.859C228.008 194.067 227.749 193.425 227.23 192.934C226.711 192.429 226.049 192.176 225.243 192.176C224.424 192.176 223.748 192.429 223.216 192.934C222.697 193.425 222.438 194.067 222.438 194.859ZM233.272 196.067V193.692H229.79C229.886 194.115 229.933 194.504 229.933 194.859C229.933 195.255 229.879 195.658 229.77 196.067H233.272ZM246.379 189.78C248.414 189.78 249.997 190.046 251.131 190.579C252.264 191.111 252.83 191.882 252.83 192.893C252.83 193.889 252.264 194.661 251.131 195.207C249.997 195.74 248.414 196.006 246.379 196.006C244.345 196.006 242.761 195.74 241.628 195.207C240.495 194.661 239.928 193.889 239.928 192.893C239.928 191.882 240.488 191.111 241.607 190.579C242.741 190.046 244.331 189.78 246.379 189.78ZM238.187 197.091H254.551V198.709H238.187V197.091ZM240.112 200.04H252.503V204.341H242.14V205.898H253.015V207.434H240.174V202.908H250.516V201.556H240.112V200.04ZM241.997 192.893C241.997 193.425 242.372 193.828 243.123 194.101C243.874 194.374 244.959 194.511 246.379 194.511C247.786 194.511 248.864 194.374 249.615 194.101C250.366 193.828 250.742 193.425 250.742 192.893C250.742 192.36 250.366 191.958 249.615 191.684C248.864 191.398 247.786 191.254 246.379 191.254C244.959 191.254 243.874 191.398 243.123 191.684C242.372 191.958 241.997 192.36 241.997 192.893ZM276.147 189.473V202.928H274.222V196.415H272.174V202.498H270.269V189.8H272.174V194.777H274.222V189.473H276.147ZM261.565 191.009H268.405V196.354H263.531V198.709C264.733 198.695 265.763 198.661 266.624 198.607C267.497 198.538 268.392 198.416 269.306 198.238L269.491 199.836C268.453 200.04 267.436 200.177 266.439 200.245C265.443 200.313 264.227 200.348 262.794 200.348H261.606V194.859H266.46V192.606H261.565V191.009ZM264.186 201.72H266.194V205.59H276.659V207.229H264.186V201.72ZM287.903 190.579V192.176H281.656V197.562C283.349 197.549 284.715 197.508 285.752 197.439C286.79 197.371 287.814 197.228 288.824 197.009L289.009 198.607C287.916 198.839 286.797 198.996 285.65 199.078C284.517 199.146 282.988 199.18 281.062 199.18H279.67V190.579H287.903ZM281.82 200.798H293.699V207.352H281.82V200.798ZM291.733 205.754V202.396H283.807V205.754H291.733ZM286.92 193.794H291.692V189.473H293.699V199.958H291.692V195.432H286.92V193.794ZM304.799 190.517C306.055 190.517 307.189 190.729 308.199 191.152C309.209 191.575 310.001 192.176 310.575 192.954C311.162 193.719 311.455 194.599 311.455 195.596C311.455 196.607 311.162 197.501 310.575 198.279C310.001 199.044 309.209 199.638 308.199 200.061C307.189 200.484 306.055 200.696 304.799 200.696C303.543 200.696 302.41 200.484 301.4 200.061C300.389 199.638 299.591 199.044 299.003 198.279C298.43 197.501 298.143 196.607 298.143 195.596C298.143 194.599 298.43 193.719 299.003 192.954C299.591 192.176 300.389 191.575 301.4 191.152C302.41 190.729 303.543 190.517 304.799 190.517ZM296.607 203.604H313.032V205.263H296.607V203.604ZM300.089 195.596C300.089 196.292 300.287 196.9 300.683 197.419C301.092 197.938 301.652 198.34 302.362 198.627C303.086 198.9 303.898 199.037 304.799 199.037C305.7 199.037 306.506 198.9 307.216 198.627C307.926 198.34 308.479 197.938 308.875 197.419C309.284 196.9 309.489 196.292 309.489 195.596C309.489 194.913 309.284 194.313 308.875 193.794C308.479 193.275 307.926 192.872 307.216 192.586C306.506 192.299 305.7 192.156 304.799 192.156C303.898 192.156 303.086 192.299 302.362 192.586C301.652 192.872 301.092 193.275 300.683 193.794C300.287 194.313 300.089 194.913 300.089 195.596ZM321.696 203.788V200.655H316.494V194.838H326.98V192.34H316.453V190.742H328.966V196.436H318.48V199.037H329.376V200.655H323.682V203.788H330.932V205.427H314.507V203.788H321.696ZM353.511 200.388V202.047H346.323V207.618H344.295V202.047H337.127V200.388H353.511ZM338.09 197.603C339.223 197.453 340.247 197.166 341.162 196.743C342.09 196.306 342.828 195.78 343.374 195.166C343.933 194.552 344.241 193.917 344.295 193.261H338.663V191.644H344.295V189.493H346.323V191.644H351.975V193.261H346.323C346.377 193.917 346.678 194.552 347.224 195.166C347.784 195.767 348.521 196.286 349.436 196.723C350.364 197.159 351.395 197.453 352.528 197.603L351.811 199.18C350.364 198.989 349.067 198.579 347.92 197.951C346.773 197.31 345.906 196.531 345.319 195.617C344.719 196.531 343.845 197.303 342.698 197.931C341.551 198.559 340.247 198.975 338.786 199.18L338.09 197.603ZM359.369 191.787V189.596H361.376V191.787H365.226V193.384H361.376V193.753C361.376 194.913 361.765 195.972 362.543 196.927C363.335 197.883 364.414 198.573 365.779 198.996L364.796 200.573C363.786 200.259 362.898 199.781 362.134 199.139C361.383 198.497 360.803 197.74 360.393 196.866C359.997 197.808 359.424 198.627 358.673 199.324C357.922 200.02 357.028 200.545 355.99 200.9L354.986 199.303C356.352 198.866 357.423 198.143 358.202 197.132C358.98 196.108 359.369 194.982 359.369 193.753V193.384H355.519V191.787H359.369ZM358.284 201.781H360.311V205.59H370.49V207.229H358.284V201.781ZM364.591 194.92H368.012V189.493H370.019V202.969H368.012V196.579H364.591V194.92ZM376.347 192.442V189.964H378.334V192.442H381.754V194.04H372.886V192.442H376.347ZM373.419 199.303C373.419 198.497 373.583 197.781 373.91 197.153C374.252 196.511 374.716 196.013 375.303 195.658C375.904 195.303 376.58 195.125 377.33 195.125C378.081 195.125 378.757 195.303 379.358 195.658C379.959 196.013 380.423 196.511 380.751 197.153C381.092 197.781 381.263 198.497 381.263 199.303C381.263 200.122 381.092 200.853 380.751 201.494C380.423 202.136 379.959 202.634 379.358 202.989C378.757 203.344 378.081 203.522 377.33 203.522C376.58 203.522 375.904 203.344 375.303 202.989C374.716 202.634 374.252 202.136 373.91 201.494C373.583 200.853 373.419 200.122 373.419 199.303ZM375.201 199.303C375.201 200.068 375.399 200.682 375.794 201.146C376.19 201.597 376.702 201.822 377.33 201.822C377.959 201.822 378.471 201.597 378.866 201.146C379.276 200.682 379.481 200.068 379.481 199.303C379.481 198.566 379.276 197.965 378.866 197.501C378.471 197.023 377.959 196.784 377.33 196.784C376.716 196.784 376.204 197.023 375.794 197.501C375.399 197.965 375.201 198.566 375.201 199.303ZM382.553 189.862H384.458V197.009H386.424V189.473H388.328V207.597H386.424V198.648H384.458V206.737H382.553V189.862ZM405.225 191.05V192.708H394.841V198.033H405.409V199.651H392.855V191.05H405.225ZM390.827 203.583H407.252V205.242H390.827V203.583ZM423.719 189.452V207.618H421.712V200.081H418.271V198.463H421.712V195.125H418.353V193.487H421.712V189.452H423.719ZM409.321 191.07H417.308V197.747H411.349V201.802C412.741 201.788 413.984 201.747 415.076 201.679C416.182 201.61 417.322 201.488 418.496 201.31L418.66 202.969C417.363 203.174 416.114 203.31 414.912 203.379C413.711 203.447 412.325 203.481 410.755 203.481H409.362V196.129H415.322V192.688H409.321V191.07ZM430.498 203.706V198.975C429.761 198.566 429.187 198.04 428.778 197.398C428.368 196.757 428.163 196.04 428.163 195.248C428.163 194.306 428.45 193.473 429.023 192.749C429.597 192.026 430.382 191.473 431.379 191.091C432.389 190.695 433.536 190.497 434.819 190.497C436.103 190.497 437.25 190.695 438.26 191.091C439.27 191.473 440.055 192.026 440.615 192.749C441.189 193.473 441.475 194.306 441.475 195.248C441.475 196.04 441.27 196.757 440.861 197.398C440.465 198.026 439.898 198.552 439.161 198.975V203.706H443.052V205.345H426.627V203.706H430.498ZM430.129 195.248C430.129 196.217 430.559 196.989 431.42 197.562C432.293 198.122 433.427 198.402 434.819 198.402C436.212 198.402 437.338 198.115 438.198 197.542C439.072 196.968 439.509 196.204 439.509 195.248C439.509 194.292 439.072 193.528 438.198 192.954C437.338 192.381 436.212 192.094 434.819 192.094C433.427 192.094 432.293 192.381 431.42 192.954C430.559 193.514 430.129 194.279 430.129 195.248ZM437.154 203.706V199.733C436.444 199.897 435.666 199.979 434.819 199.979C434 199.979 433.229 199.897 432.505 199.733V203.706H437.154ZM452.872 202.15H451.029L450.681 190.763H453.179L452.872 202.15ZM450.763 205.201C450.763 204.86 450.872 204.58 451.09 204.362C451.323 204.143 451.616 204.034 451.971 204.034C452.326 204.034 452.606 204.143 452.811 204.362C453.029 204.566 453.138 204.846 453.138 205.201C453.138 205.556 453.029 205.843 452.811 206.061C452.592 206.294 452.312 206.41 451.971 206.41C451.616 206.41 451.323 206.294 451.09 206.061C450.872 205.843 450.763 205.556 450.763 205.201ZM186.766 231.452V249.618H184.739V231.452H186.766ZM172.471 239.173C172.471 237.903 172.669 236.791 173.065 235.835C173.461 234.865 174.014 234.121 174.724 233.603C175.434 233.07 176.24 232.804 177.141 232.804C178.042 232.804 178.84 233.07 179.537 233.603C180.247 234.121 180.8 234.865 181.196 235.835C181.592 236.791 181.79 237.903 181.79 239.173C181.79 240.457 181.592 241.583 181.196 242.552C180.8 243.522 180.247 244.273 179.537 244.805C178.84 245.324 178.042 245.583 177.141 245.583C176.24 245.583 175.434 245.324 174.724 244.805C174.014 244.273 173.461 243.522 173.065 242.552C172.669 241.583 172.471 240.457 172.471 239.173ZM174.417 239.173C174.417 240.579 174.663 241.699 175.154 242.532C175.659 243.351 176.321 243.761 177.141 243.761C177.946 243.761 178.602 243.351 179.107 242.532C179.612 241.699 179.864 240.579 179.864 239.173C179.864 237.78 179.612 236.675 179.107 235.855C178.602 235.036 177.946 234.627 177.141 234.627C176.321 234.627 175.659 235.036 175.154 235.855C174.663 236.675 174.417 237.78 174.417 239.173ZM196.966 233.48V231.391H198.952V233.48H205.26V235.077H190.596V233.48H196.966ZM189.777 243.228H206.202V244.846H198.952V249.618H196.966V244.846H189.777V243.228ZM191.948 239.05C191.948 238.067 192.474 237.316 193.525 236.797C194.576 236.265 196.058 235.999 197.969 235.999C199.867 235.999 201.342 236.265 202.393 236.797C203.444 237.316 203.97 238.067 203.97 239.05C203.97 240.02 203.444 240.771 202.393 241.303C201.342 241.836 199.867 242.102 197.969 242.102C196.071 242.102 194.59 241.836 193.525 241.303C192.474 240.771 191.948 240.02 191.948 239.05ZM194.037 239.05C194.037 239.555 194.372 239.938 195.041 240.197C195.71 240.457 196.686 240.586 197.969 240.586C199.239 240.586 200.208 240.457 200.877 240.197C201.546 239.938 201.881 239.555 201.881 239.05C201.881 238.545 201.546 238.163 200.877 237.903C200.208 237.63 199.239 237.494 197.969 237.494C196.686 237.494 195.71 237.63 195.041 237.903C194.372 238.163 194.037 238.545 194.037 239.05ZM217.333 233.418V231.514H219.36V233.418H223.19V234.995H219.36C219.36 235.842 219.729 236.599 220.466 237.268C221.217 237.937 222.241 238.415 223.538 238.702L222.74 240.259C221.716 240.026 220.835 239.671 220.098 239.194C219.36 238.702 218.794 238.115 218.398 237.432C218.002 238.183 217.422 238.825 216.657 239.357C215.906 239.876 215.005 240.259 213.954 240.504L213.114 238.948C214.438 238.661 215.476 238.156 216.227 237.432C216.978 236.709 217.353 235.896 217.353 234.995H213.544V233.418H217.333ZM212.377 241.59C214.725 241.59 216.841 241.556 218.726 241.487C220.61 241.419 222.419 241.262 224.153 241.016L224.276 242.491C222.938 242.723 221.299 242.914 219.36 243.064V249.065H217.353V243.167C215.838 243.221 214.261 243.249 212.623 243.249L212.377 241.59ZM225.341 231.473H227.348V249.618H225.341V231.473ZM244.428 231.473V234.401H246.948V236.06H244.428V238.292H246.948V239.931H244.428V243.064H242.421V231.473H244.428ZM230.338 233.398H234.66V231.329H236.687V233.398H241.008V234.995H230.338V233.398ZM231.301 238.989C231.301 238.033 231.704 237.262 232.509 236.675C233.315 236.087 234.366 235.794 235.663 235.794C236.523 235.794 237.288 235.93 237.957 236.204C238.626 236.463 239.145 236.838 239.513 237.33C239.882 237.808 240.066 238.361 240.066 238.989C240.066 239.972 239.657 240.757 238.837 241.344C238.032 241.931 236.974 242.225 235.663 242.225C234.352 242.225 233.294 241.931 232.489 241.344C231.697 240.757 231.301 239.972 231.301 238.989ZM232.693 246.403C232.693 245.42 233.226 244.648 234.291 244.088C235.356 243.529 236.817 243.249 238.674 243.249C240.53 243.249 241.985 243.529 243.036 244.088C244.101 244.648 244.633 245.42 244.633 246.403C244.633 247.399 244.101 248.177 243.036 248.737C241.985 249.297 240.53 249.577 238.674 249.577C236.817 249.577 235.356 249.297 234.291 248.737C233.226 248.177 232.693 247.399 232.693 246.403ZM233.226 238.989C233.226 239.521 233.444 239.945 233.881 240.259C234.332 240.573 234.926 240.73 235.663 240.73C236.4 240.73 236.994 240.573 237.445 240.259C237.895 239.945 238.121 239.521 238.121 238.989C238.121 238.456 237.895 238.04 237.445 237.74C237.008 237.439 236.414 237.289 235.663 237.289C234.926 237.289 234.332 237.439 233.881 237.74C233.444 238.04 233.226 238.456 233.226 238.989ZM234.7 246.403C234.7 246.935 235.042 247.345 235.724 247.631C236.421 247.904 237.404 248.041 238.674 248.041C239.943 248.041 240.926 247.904 241.623 247.631C242.319 247.345 242.667 246.935 242.667 246.403C242.667 245.884 242.319 245.488 241.623 245.215C240.926 244.928 239.943 244.785 238.674 244.785C237.404 244.785 236.421 244.928 235.724 245.215C235.042 245.488 234.7 245.884 234.7 246.403ZM263.639 231.473V249.597H261.735V231.473H263.639ZM248.382 239.296C248.382 237.985 248.539 236.852 248.853 235.896C249.167 234.927 249.617 234.183 250.204 233.664C250.791 233.145 251.474 232.886 252.252 232.886C253.345 232.886 254.239 233.377 254.935 234.36C255.632 235.33 256.034 236.668 256.144 238.374H258.089V231.841H259.973V248.717H258.089V240.013H256.144C256.062 241.788 255.672 243.187 254.976 244.211C254.28 245.222 253.372 245.727 252.252 245.727C251.474 245.727 250.791 245.467 250.204 244.948C249.617 244.43 249.167 243.686 248.853 242.716C248.539 241.747 248.382 240.607 248.382 239.296ZM250.225 239.296C250.225 240.73 250.402 241.849 250.757 242.655C251.112 243.447 251.611 243.843 252.252 243.843C252.894 243.843 253.399 243.447 253.768 242.655C254.136 241.849 254.321 240.73 254.321 239.296C254.321 237.876 254.136 236.77 253.768 235.978C253.399 235.186 252.894 234.79 252.252 234.79C251.611 234.79 251.112 235.186 250.757 235.978C250.402 236.756 250.225 237.862 250.225 239.296ZM279.951 232.681V240.525H271.514V232.681H279.951ZM272.538 248C273.562 247.863 274.483 247.611 275.302 247.242C276.135 246.874 276.797 246.437 277.289 245.932C277.794 245.413 278.095 244.873 278.19 244.314H273.275V242.716H285.256V244.314H280.361C280.457 244.873 280.757 245.413 281.262 245.932C281.767 246.437 282.423 246.874 283.228 247.242C284.047 247.611 284.962 247.87 285.972 248.02L285.235 249.556C283.87 249.338 282.662 248.935 281.61 248.348C280.573 247.761 279.794 247.044 279.276 246.198C278.757 247.044 277.972 247.754 276.92 248.328C275.883 248.915 274.674 249.318 273.295 249.536L272.538 248ZM277.965 238.927V234.299H273.48V238.927H277.965ZM282.962 231.473H284.969V235.651H287.529V237.33H284.969V241.733H282.962V231.473ZM292.854 232.128V236.716H303.258V238.333H290.868V232.128H292.854ZM288.717 240.545H305.142V242.184H288.717V240.545ZM290.724 243.843H292.731V247.549H303.36V249.188H290.724V243.843ZM321.495 232.763V234.401H317.666V234.77C317.666 235.93 318.041 236.995 318.792 237.965C319.557 238.921 320.615 239.617 321.966 240.054L320.983 241.61C320 241.283 319.14 240.805 318.403 240.177C317.679 239.535 317.113 238.784 316.703 237.924C316.307 238.921 315.727 239.788 314.962 240.525C314.198 241.262 313.283 241.815 312.218 242.184L311.194 240.607C312.587 240.129 313.679 239.357 314.471 238.292C315.263 237.228 315.659 236.06 315.659 234.79V234.401H311.767V232.763H321.495ZM313.631 246.157C313.631 245.092 314.164 244.259 315.228 243.658C316.307 243.057 317.782 242.757 319.652 242.757C321.523 242.757 322.99 243.057 324.055 243.658C325.134 244.259 325.673 245.092 325.673 246.157C325.673 247.222 325.134 248.055 324.055 248.655C322.977 249.27 321.509 249.577 319.652 249.577C317.795 249.577 316.328 249.27 315.249 248.655C314.17 248.055 313.631 247.222 313.631 246.157ZM315.597 246.157C315.597 246.744 315.952 247.201 316.662 247.529C317.386 247.857 318.382 248.02 319.652 248.02C320.922 248.02 321.912 247.857 322.622 247.529C323.332 247.201 323.687 246.744 323.687 246.157C323.687 245.583 323.332 245.14 322.622 244.826C321.925 244.512 320.936 244.355 319.652 244.355C318.369 244.355 317.372 244.512 316.662 244.826C315.952 245.14 315.597 245.583 315.597 246.157ZM323.461 231.473H325.468V235.917H328.049V237.576H325.468V242.327H323.461V231.473ZM336.364 245.665V241.405H338.371V245.665H345.662V247.324H329.237V245.665H336.364ZM329.79 240.074C330.951 239.883 332.029 239.48 333.026 238.866C334.036 238.238 334.835 237.494 335.422 236.634C336.009 235.76 336.303 234.865 336.303 233.951V232.579H338.433V233.951C338.433 234.879 338.726 235.78 339.313 236.654C339.914 237.514 340.713 238.252 341.71 238.866C342.706 239.48 343.792 239.883 344.966 240.074L344.106 241.774C342.618 241.474 341.266 240.893 340.051 240.033C338.849 239.173 337.955 238.135 337.368 236.92C336.767 238.135 335.866 239.173 334.664 240.033C333.463 240.893 332.118 241.474 330.63 241.774L329.79 240.074ZM361.535 232.824V234.463H351.172V239.788H361.719V241.405H356.312V245.727H363.562V247.386H347.137V245.727H354.326V241.405H349.165V232.824H361.535ZM384.319 233.172V234.954C384.319 236.497 384.278 237.89 384.196 239.132C384.127 240.361 383.95 241.801 383.663 243.453L381.636 243.228C381.936 241.658 382.12 240.265 382.189 239.05C382.271 237.835 382.312 236.47 382.312 234.954V234.811H371.457V233.172H384.319ZM369.757 245.522H375.922V239.153H377.908V245.522H386.141V247.181H369.757V245.522ZM404.082 239.808V241.283H387.657V239.808H404.082ZM389.562 242.532H402.055V246.566H391.589V247.98H402.608V249.413H389.603V245.235H400.089V243.945H389.562V242.532ZM389.705 231.923H401.993V235.896H391.712V237.207H402.341V238.641H389.746V234.565H400.007V233.336H389.705V231.923ZM419.534 232.087V233.029C419.534 233.807 419.814 234.565 420.374 235.302C420.947 236.04 421.719 236.668 422.688 237.187C423.671 237.705 424.757 238.047 425.944 238.211L425.146 239.808C423.658 239.576 422.32 239.098 421.132 238.374C419.958 237.637 419.077 236.743 418.49 235.692C417.916 236.743 417.036 237.637 415.848 238.374C414.66 239.098 413.315 239.576 411.813 239.808L411.015 238.211C412.216 238.047 413.302 237.705 414.271 237.187C415.254 236.668 416.025 236.047 416.585 235.323C417.145 234.586 417.425 233.821 417.425 233.029V232.087H419.534ZM410.277 241.549H426.661V243.208H419.432V249.597H417.425V243.208H410.277V241.549ZM439.185 242.573V243.392C439.185 244.211 439.383 244.996 439.779 245.747C440.175 246.484 440.755 247.092 441.519 247.57C442.298 247.051 442.892 246.409 443.301 245.645C443.711 244.88 443.916 244.129 443.916 243.392V242.573H445.882V243.392C445.882 244.375 446.189 245.276 446.803 246.095C447.431 246.901 448.305 247.488 449.425 247.857L448.442 249.352C447.581 249.051 446.851 248.614 446.25 248.041C445.649 247.481 445.192 246.819 444.878 246.054C444.564 246.819 444.127 247.502 443.567 248.102C443.021 248.717 442.359 249.188 441.581 249.516C440.748 249.201 440.052 248.751 439.492 248.164C438.932 247.577 438.509 246.894 438.222 246.116C437.881 246.853 437.417 247.495 436.829 248.041C436.242 248.601 435.539 249.038 434.72 249.352L433.716 247.857C434.836 247.461 435.703 246.853 436.317 246.034C436.945 245.201 437.26 244.32 437.26 243.392V242.573H439.185ZM433.266 236.756C433.266 235.924 433.471 235.186 433.88 234.545C434.29 233.903 434.857 233.405 435.58 233.05C436.317 232.681 437.143 232.497 438.058 232.497C438.973 232.497 439.792 232.681 440.516 233.05C441.253 233.405 441.827 233.903 442.236 234.545C442.646 235.186 442.851 235.924 442.851 236.756C442.851 237.589 442.646 238.327 442.236 238.968C441.827 239.61 441.253 240.115 440.516 240.484C439.792 240.839 438.973 241.016 438.058 241.016C437.143 241.016 436.317 240.839 435.58 240.484C434.857 240.115 434.29 239.61 433.88 238.968C433.471 238.327 433.266 237.589 433.266 236.756ZM435.212 236.756C435.212 237.535 435.478 238.163 436.01 238.641C436.543 239.119 437.225 239.357 438.058 239.357C438.891 239.357 439.574 239.119 440.106 238.641C440.639 238.163 440.905 237.535 440.905 236.756C440.905 235.978 440.639 235.35 440.106 234.872C439.574 234.394 438.891 234.156 438.058 234.156C437.225 234.156 436.543 234.401 436.01 234.893C435.478 235.371 435.212 235.992 435.212 236.756ZM445.8 231.493H447.848V241.795H445.8V231.493ZM455.651 232.804C456.47 232.804 457.201 233.029 457.842 233.48C458.498 233.917 459.03 234.545 459.44 235.364C459.849 236.169 460.102 237.125 460.198 238.231H463.802V231.452H465.809V249.618H463.802V239.849H460.218C460.15 241.009 459.911 242.027 459.501 242.9C459.105 243.761 458.573 244.423 457.904 244.887C457.235 245.351 456.484 245.583 455.651 245.583C454.777 245.583 453.992 245.324 453.296 244.805C452.6 244.273 452.053 243.522 451.657 242.552C451.275 241.583 451.084 240.457 451.084 239.173C451.084 237.903 451.275 236.791 451.657 235.835C452.053 234.865 452.6 234.121 453.296 233.603C453.992 233.07 454.777 232.804 455.651 232.804ZM452.989 239.173C452.989 240.102 453.098 240.914 453.316 241.61C453.548 242.307 453.862 242.839 454.258 243.208C454.668 243.576 455.132 243.761 455.651 243.761C456.47 243.761 457.119 243.351 457.597 242.532C458.088 241.713 458.334 240.593 458.334 239.173C458.334 237.767 458.088 236.661 457.597 235.855C457.119 235.036 456.47 234.627 455.651 234.627C454.859 234.627 454.217 235.036 453.726 235.855C453.234 236.675 452.989 237.78 452.989 239.173ZM472.568 245.706V240.975C471.831 240.566 471.257 240.04 470.848 239.398C470.438 238.757 470.233 238.04 470.233 237.248C470.233 236.306 470.52 235.473 471.093 234.749C471.667 234.026 472.452 233.473 473.449 233.091C474.459 232.695 475.606 232.497 476.889 232.497C478.173 232.497 479.32 232.695 480.33 233.091C481.34 233.473 482.125 234.026 482.685 234.749C483.259 235.473 483.545 236.306 483.545 237.248C483.545 238.04 483.341 238.757 482.931 239.398C482.535 240.026 481.968 240.552 481.231 240.975V245.706H485.122V247.345H468.697V245.706H472.568ZM472.199 237.248C472.199 238.217 472.629 238.989 473.49 239.562C474.363 240.122 475.497 240.402 476.889 240.402C478.282 240.402 479.408 240.115 480.269 239.542C481.142 238.968 481.579 238.204 481.579 237.248C481.579 236.292 481.142 235.528 480.269 234.954C479.408 234.381 478.282 234.094 476.889 234.094C475.497 234.094 474.363 234.381 473.49 234.954C472.629 235.514 472.199 236.279 472.199 237.248ZM479.224 245.706V241.733C478.514 241.897 477.736 241.979 476.889 241.979C476.07 241.979 475.299 241.897 474.575 241.733V245.706H479.224Z" fill="black"/>
<g filter="url(#filter0_d_36_74)">
<path d="M67.7154 23.3551C67.7185 23.2751 67.7215 23.1999 67.7242 23.1297L636.03 24.9343L623.654 222.696L579.675 334.028L5.25225 323.524C5.26915 323.479 5.28659 323.433 5.30458 323.386C5.58659 322.64 6.00166 321.537 6.53417 320.11C7.59918 317.256 9.134 313.106 11.0138 307.917C14.7733 297.54 19.913 283.008 25.4342 266.39C36.4734 233.164 49.0493 191.563 55.1578 158.151C59.9492 131.943 63.0969 97.9996 65.0469 70.6262C66.0222 56.9356 66.6983 44.8813 67.1307 36.2495C67.3468 31.9335 67.5021 28.473 67.6033 26.0911C67.6539 24.9002 67.6909 23.9789 67.7154 23.3551Z" stroke="black" stroke-width="1.5" shape-rendering="crispEdges"/>
</g>
<defs>
<filter id="filter0_d_36_74" x="0.172852" y="22.3774" width="640.655" height="320.41" filterUnits="userSpaceOnUse" color-interpolation-filters="sRGB">
<feFlood flood-opacity="0" result="BackgroundImageFix"/>
<feColorMatrix in="SourceAlpha" type="matrix" values="0 0 0 0 0 0 0 0 0 0 0 0 0 0 0 0 0 0 127 0" result="hardAlpha"/>
<feOffset dy="4"/>
<feGaussianBlur stdDeviation="2"/>
<feComposite in2="hardAlpha" operator="out"/>
<feColorMatrix type="matrix" values="0 0 0 0 0 0 0 0 0 0 0 0 0 0 0 0 0 0 0.25 0"/>
<feBlend mode="normal" in2="BackgroundImageFix" result="effect1_dropShadow_36_74"/>
<feBlend mode="normal" in="SourceGraphic" in2="effect1_dropShadow_36_74" result="shape"/>
</filter>
</defs>
</svg>
