<svg width="84" height="84" viewBox="0 0 84 84" fill="none" xmlns="http://www.w3.org/2000/svg">
<g id="Icon/user">
<path id="Path 4" d="M19.25 68.25C19.25 68.25 31.5 63 35 59.5C38.5 56 28 56 28 38.5C28 21 42 21 42 21C42 21 56 21 56 38.5C56 56 45.5 56 49 59.5C52.5 63 64.75 68.25 64.75 68.25" stroke="black" stroke-width="1.44" stroke-linecap="round"/>
<path id="Oval" fill-rule="evenodd" clip-rule="evenodd" d="M42.0005 77.0005C61.3305 77.0005 77.0005 61.3305 77.0005 42.0005C77.0005 22.6705 61.3305 7.00049 42.0005 7.00049C22.6705 7.00049 7.00049 22.6705 7.00049 42.0005C7.00049 61.3305 22.6705 77.0005 42.0005 77.0005Z" stroke="black" stroke-width="1.44"/>
</g>
</svg>
