<svg width="444" height="439" viewBox="0 0 444 439" fill="none" xmlns="http://www.w3.org/2000/svg">
<mask id="path-1-inside-1_28_189" fill="white">
<path fill-rule="evenodd" clip-rule="evenodd" d="M443.317 22.3047H27.3174V438.305H29.0969L46.7731 421L64.4492 438.305H67.0969L84.7731 421L102.449 438.305H105.097L122.773 421L140.449 438.305H142.213L160.273 421L178.333 438.305H179.097L196.773 421L214.449 438.305H217.097L234.773 421L252.449 438.305H255.097L272.773 421L290.449 438.305H292.213L310.273 421L328.333 438.305H330.097L347.773 421L365.449 438.305H368.097L385.773 421L403.449 438.305H406.097L423.773 421L441.449 438.305H443.317V22.3047Z"/>
</mask>
<path fill-rule="evenodd" clip-rule="evenodd" d="M443.317 22.3047H27.3174V438.305H29.0969L46.7731 421L64.4492 438.305H67.0969L84.7731 421L102.449 438.305H105.097L122.773 421L140.449 438.305H142.213L160.273 421L178.333 438.305H179.097L196.773 421L214.449 438.305H217.097L234.773 421L252.449 438.305H255.097L272.773 421L290.449 438.305H292.213L310.273 421L328.333 438.305H330.097L347.773 421L365.449 438.305H368.097L385.773 421L403.449 438.305H406.097L423.773 421L441.449 438.305H443.317V22.3047Z" fill="#FCEBA5"/>
<path d="M27.3174 22.3047V20.8047H25.8174V22.3047H27.3174ZM443.317 22.3047H444.817V20.8047H443.317V22.3047ZM27.3174 438.305H25.8174V439.805H27.3174V438.305ZM29.0969 438.305V439.805H29.7089L30.1463 439.377L29.0969 438.305ZM46.7731 421L47.8224 419.928L46.7731 418.901L45.7237 419.928L46.7731 421ZM64.4492 438.305L63.3999 439.377L63.8372 439.805H64.4492V438.305ZM67.0969 438.305V439.805H67.7089L68.1463 439.377L67.0969 438.305ZM84.7731 421L85.8224 419.928L84.7731 418.901L83.7237 419.928L84.7731 421ZM102.449 438.305L101.4 439.377L101.837 439.805H102.449V438.305ZM105.097 438.305V439.805H105.709L106.146 439.377L105.097 438.305ZM122.773 421L123.822 419.928L122.773 418.901L121.724 419.928L122.773 421ZM140.449 438.305L139.4 439.377L139.837 439.805H140.449V438.305ZM142.213 438.305V439.805H142.815L143.25 439.388L142.213 438.305ZM160.273 421L161.311 419.917L160.273 418.923L159.235 419.917L160.273 421ZM178.333 438.305L177.296 439.388L177.731 439.805H178.333V438.305ZM179.097 438.305V439.805H179.709L180.146 439.377L179.097 438.305ZM196.773 421L197.822 419.928L196.773 418.901L195.724 419.928L196.773 421ZM214.449 438.305L213.4 439.377L213.837 439.805H214.449V438.305ZM217.097 438.305V439.805H217.709L218.146 439.377L217.097 438.305ZM234.773 421L235.822 419.928L234.773 418.901L233.724 419.928L234.773 421ZM252.449 438.305L251.4 439.377L251.837 439.805H252.449V438.305ZM255.097 438.305V439.805H255.709L256.146 439.377L255.097 438.305ZM272.773 421L273.822 419.928L272.773 418.901L271.724 419.928L272.773 421ZM290.449 438.305L289.4 439.377L289.837 439.805H290.449V438.305ZM292.213 438.305V439.805H292.815L293.25 439.388L292.213 438.305ZM310.273 421L311.311 419.917L310.273 418.923L309.235 419.917L310.273 421ZM328.333 438.305L327.296 439.388L327.731 439.805H328.333V438.305ZM330.097 438.305V439.805H330.709L331.146 439.377L330.097 438.305ZM347.773 421L348.822 419.928L347.773 418.901L346.724 419.928L347.773 421ZM365.449 438.305L364.4 439.377L364.837 439.805H365.449V438.305ZM368.097 438.305V439.805H368.709L369.146 439.377L368.097 438.305ZM385.773 421L386.822 419.928L385.773 418.901L384.724 419.928L385.773 421ZM403.449 438.305L402.4 439.377L402.837 439.805H403.449V438.305ZM406.097 438.305V439.805H406.709L407.146 439.377L406.097 438.305ZM423.773 421L424.822 419.928L423.773 418.901L422.724 419.928L423.773 421ZM441.449 438.305L440.4 439.377L440.837 439.805H441.449V438.305ZM443.317 438.305V439.805H444.817V438.305H443.317ZM27.3174 23.8047H443.317V20.8047H27.3174V23.8047ZM28.8174 438.305V22.3047H25.8174V438.305H28.8174ZM29.0969 436.805H27.3174V439.805H29.0969V436.805ZM45.7237 419.928L28.0476 437.233L30.1463 439.377L47.8224 422.072L45.7237 419.928ZM65.4986 437.233L47.8224 419.928L45.7237 422.072L63.3999 439.377L65.4986 437.233ZM67.0969 436.805H64.4492V439.805H67.0969V436.805ZM83.7237 419.928L66.0476 437.233L68.1463 439.377L85.8224 422.072L83.7237 419.928ZM103.499 437.233L85.8224 419.928L83.7237 422.072L101.4 439.377L103.499 437.233ZM105.097 436.805H102.449V439.805H105.097V436.805ZM121.724 419.928L104.048 437.233L106.146 439.377L123.822 422.072L121.724 419.928ZM141.499 437.233L123.822 419.928L121.724 422.072L139.4 439.377L141.499 437.233ZM142.213 436.805H140.449V439.805H142.213V436.805ZM159.235 419.917L141.175 437.222L143.25 439.388L161.311 422.083L159.235 419.917ZM179.371 437.222L161.311 419.917L159.235 422.083L177.296 439.388L179.371 437.222ZM179.097 436.805H178.333V439.805H179.097V436.805ZM195.724 419.928L178.048 437.233L180.146 439.377L197.822 422.072L195.724 419.928ZM215.499 437.233L197.822 419.928L195.724 422.072L213.4 439.377L215.499 437.233ZM217.097 436.805H214.449V439.805H217.097V436.805ZM233.724 419.928L216.048 437.233L218.146 439.377L235.822 422.072L233.724 419.928ZM253.499 437.233L235.822 419.928L233.724 422.072L251.4 439.377L253.499 437.233ZM255.097 436.805H252.449V439.805H255.097V436.805ZM271.724 419.928L254.048 437.233L256.146 439.377L273.822 422.072L271.724 419.928ZM291.499 437.233L273.822 419.928L271.724 422.072L289.4 439.377L291.499 437.233ZM292.213 436.805H290.449V439.805H292.213V436.805ZM293.25 439.388L311.311 422.083L309.235 419.917L291.175 437.222L293.25 439.388ZM309.235 422.083L327.296 439.388L329.371 437.222L311.311 419.917L309.235 422.083ZM330.097 436.805H328.333V439.805H330.097V436.805ZM346.724 419.928L329.048 437.233L331.146 439.377L348.822 422.072L346.724 419.928ZM366.499 437.233L348.822 419.928L346.724 422.072L364.4 439.377L366.499 437.233ZM368.097 436.805H365.449V439.805H368.097V436.805ZM384.724 419.928L367.048 437.233L369.146 439.377L386.822 422.072L384.724 419.928ZM404.499 437.233L386.822 419.928L384.724 422.072L402.4 439.377L404.499 437.233ZM406.097 436.805H403.449V439.805H406.097V436.805ZM422.724 419.928L405.048 437.233L407.146 439.377L424.822 422.072L422.724 419.928ZM442.499 437.233L424.822 419.928L422.724 422.072L440.4 439.377L442.499 437.233ZM443.317 436.805H441.449V439.805H443.317V436.805ZM441.817 22.3047V438.305H444.817V22.3047H441.817Z" fill="black" mask="url(#path-1-inside-1_28_189)"/>
<circle cx="69.3174" cy="64.3047" r="17.25" fill="white" stroke="black" stroke-width="1.5"/>
<path d="M62.1222 47.662C61.3809 68.0785 40.6755 67.7941 31.4681 67.1806C12.6819 65.035 1.28261 52.3563 3.41008 33.7286C5.53755 15.1008 22.4914 1.73933 41.2777 3.88489C49.7815 4.85611 60.0085 8.2647 63.4616 22.1024" stroke="black" stroke-width="2"/>
</svg>
